<mxfile host="65bd71144e">
    <diagram id="uP80tnaTMEmIqNWMILJW" name="Page-1">
        <mxGraphModel dx="1307" dy="656" grid="1" gridSize="10" guides="1" tooltips="1" connect="1" arrows="1" fold="1" page="1" pageScale="1" pageWidth="827" pageHeight="1169" math="0" shadow="0">
            <root>
                <mxCell id="0"/>
                <mxCell id="1" parent="0"/>
                <mxCell id="71" value="" style="whiteSpace=wrap;html=1;" vertex="1" parent="1">
                    <mxGeometry x="37" y="50" width="790" height="610" as="geometry"/>
                </mxCell>
                <mxCell id="22" style="edgeStyle=none;html=1;entryX=0.5;entryY=1;entryDx=0;entryDy=0;dashed=1;strokeColor=default;" parent="1" source="10" target="17" edge="1">
                    <mxGeometry relative="1" as="geometry"/>
                </mxCell>
                <mxCell id="25" style="edgeStyle=none;html=1;entryX=0;entryY=0.5;entryDx=0;entryDy=0;dashed=1;strokeColor=default;" parent="1" source="10" target="24" edge="1">
                    <mxGeometry relative="1" as="geometry"/>
                </mxCell>
                <mxCell id="29" style="edgeStyle=none;html=1;strokeColor=default;dashed=1;" parent="1" source="10" target="28" edge="1">
                    <mxGeometry relative="1" as="geometry"/>
                </mxCell>
                <mxCell id="48" style="edgeStyle=none;html=1;entryX=0.625;entryY=0.111;entryDx=0;entryDy=0;entryPerimeter=0;strokeColor=default;dashed=1;" parent="1" source="10" target="47" edge="1">
                    <mxGeometry relative="1" as="geometry"/>
                </mxCell>
                <mxCell id="10" value="passage en caisse" style="ellipse;whiteSpace=wrap;html=1;labelBorderColor=default;" parent="1" vertex="1">
                    <mxGeometry x="190" y="230" width="120" height="50" as="geometry"/>
                </mxCell>
                <mxCell id="27" style="edgeStyle=none;shape=link;html=1;strokeColor=default;" parent="1" source="14" target="24" edge="1">
                    <mxGeometry relative="1" as="geometry"/>
                </mxCell>
                <mxCell id="40" style="edgeStyle=none;shape=link;html=1;entryX=1;entryY=0.5;entryDx=0;entryDy=0;strokeColor=default;" parent="1" source="14" target="32" edge="1">
                    <mxGeometry relative="1" as="geometry"/>
                </mxCell>
                <mxCell id="41" style="edgeStyle=none;shape=link;html=1;entryX=1;entryY=0.5;entryDx=0;entryDy=0;strokeColor=default;" parent="1" source="14" target="31" edge="1">
                    <mxGeometry relative="1" as="geometry"/>
                </mxCell>
                <mxCell id="14" value="caissier" style="shape=umlActor;verticalLabelPosition=bottom;verticalAlign=top;html=1;outlineConnect=0;labelBorderColor=default;" parent="1" vertex="1">
                    <mxGeometry x="860" y="220" width="40" height="75" as="geometry"/>
                </mxCell>
                <mxCell id="17" value="affichage des articles" style="ellipse;whiteSpace=wrap;html=1;labelBorderColor=default;" parent="1" vertex="1">
                    <mxGeometry x="250" y="90" width="90" height="50" as="geometry"/>
                </mxCell>
                <mxCell id="19" value="include" style="text;html=1;align=center;verticalAlign=middle;resizable=0;points=[];autosize=1;strokeColor=none;fillColor=none;" parent="1" vertex="1">
                    <mxGeometry x="280" y="160" width="60" height="30" as="geometry"/>
                </mxCell>
                <mxCell id="24" value="validation commande" style="ellipse;whiteSpace=wrap;html=1;labelBorderColor=default;" parent="1" vertex="1">
                    <mxGeometry x="490" y="230" width="100" height="50" as="geometry"/>
                </mxCell>
                <mxCell id="26" value="include" style="text;html=1;align=center;verticalAlign=middle;resizable=0;points=[];autosize=1;strokeColor=none;fillColor=none;" parent="1" vertex="1">
                    <mxGeometry x="340" y="220" width="60" height="30" as="geometry"/>
                </mxCell>
                <mxCell id="62" style="edgeStyle=none;html=1;entryX=0.5;entryY=0;entryDx=0;entryDy=0;strokeColor=default;dashed=1;" parent="1" source="28" target="60" edge="1">
                    <mxGeometry relative="1" as="geometry"/>
                </mxCell>
                <mxCell id="28" value="payer" style="ellipse;whiteSpace=wrap;html=1;labelBorderColor=default;" parent="1" vertex="1">
                    <mxGeometry x="370" y="320" width="80" height="40" as="geometry"/>
                </mxCell>
                <mxCell id="30" value="include" style="text;html=1;align=center;verticalAlign=middle;resizable=0;points=[];autosize=1;strokeColor=none;fillColor=none;" parent="1" vertex="1">
                    <mxGeometry x="330" y="280" width="60" height="30" as="geometry"/>
                </mxCell>
                <mxCell id="34" style="edgeStyle=none;html=1;exitX=0;exitY=0.5;exitDx=0;exitDy=0;entryX=0.95;entryY=0.325;entryDx=0;entryDy=0;entryPerimeter=0;strokeColor=default;" parent="1" source="31" target="28" edge="1">
                    <mxGeometry relative="1" as="geometry"/>
                </mxCell>
                <mxCell id="31" value="liquide" style="ellipse;whiteSpace=wrap;html=1;labelBorderColor=default;" parent="1" vertex="1">
                    <mxGeometry x="520" y="300" width="70" height="40" as="geometry"/>
                </mxCell>
                <mxCell id="35" style="edgeStyle=none;html=1;entryX=1;entryY=0.5;entryDx=0;entryDy=0;strokeColor=default;" parent="1" source="32" target="28" edge="1">
                    <mxGeometry relative="1" as="geometry"/>
                </mxCell>
                <mxCell id="32" value="chèque" style="ellipse;whiteSpace=wrap;html=1;labelBorderColor=default;" parent="1" vertex="1">
                    <mxGeometry x="520" y="360" width="70" height="40" as="geometry"/>
                </mxCell>
                <mxCell id="36" style="edgeStyle=none;html=1;strokeColor=default;entryX=0.688;entryY=1;entryDx=0;entryDy=0;entryPerimeter=0;" parent="1" source="33" target="28" edge="1">
                    <mxGeometry relative="1" as="geometry">
                        <mxPoint x="360" y="400" as="targetPoint"/>
                    </mxGeometry>
                </mxCell>
                <mxCell id="33" value="carte de crédit" style="ellipse;whiteSpace=wrap;html=1;labelBorderColor=default;" parent="1" vertex="1">
                    <mxGeometry x="520" y="430" width="70" height="40" as="geometry"/>
                </mxCell>
                <mxCell id="42" value="banque" style="shape=umlActor;verticalLabelPosition=bottom;verticalAlign=top;html=1;outlineConnect=0;labelBorderColor=default;" parent="1" vertex="1">
                    <mxGeometry x="860" y="420" width="30" height="60" as="geometry"/>
                </mxCell>
                <mxCell id="45" value="" style="edgeStyle=none;shape=link;html=1;entryX=1;entryY=0.5;entryDx=0;entryDy=0;strokeColor=default;endArrow=none;" parent="1" source="42" target="33" edge="1">
                    <mxGeometry relative="1" as="geometry">
                        <mxPoint x="730" y="470" as="sourcePoint"/>
                        <mxPoint x="670" y="465" as="targetPoint"/>
                    </mxGeometry>
                </mxCell>
                <mxCell id="46" value="secondary" style="text;html=1;align=center;verticalAlign=middle;resizable=0;points=[];autosize=1;strokeColor=none;fillColor=none;" parent="1" vertex="1">
                    <mxGeometry x="620" y="420" width="80" height="30" as="geometry"/>
                </mxCell>
                <mxCell id="47" value="impression ticket" style="ellipse;whiteSpace=wrap;html=1;labelBorderColor=default;" parent="1" vertex="1">
                    <mxGeometry x="200" y="405" width="80" height="45" as="geometry"/>
                </mxCell>
                <mxCell id="49" value="include" style="text;html=1;align=center;verticalAlign=middle;resizable=0;points=[];autosize=1;strokeColor=none;fillColor=none;" parent="1" vertex="1">
                    <mxGeometry x="190" y="340" width="60" height="30" as="geometry"/>
                </mxCell>
                <mxCell id="55" style="edgeStyle=none;html=1;entryX=1;entryY=0;entryDx=0;entryDy=0;dashed=1;strokeColor=default;" parent="1" source="51" target="10" edge="1">
                    <mxGeometry relative="1" as="geometry"/>
                </mxCell>
                <mxCell id="51" value="ticket de réduction" style="ellipse;whiteSpace=wrap;html=1;labelBorderColor=default;" parent="1" vertex="1">
                    <mxGeometry x="470" y="110" width="100" height="45" as="geometry"/>
                </mxCell>
                <mxCell id="54" value="extend" style="text;html=1;align=center;verticalAlign=middle;resizable=0;points=[];autosize=1;strokeColor=none;fillColor=none;" parent="1" vertex="1">
                    <mxGeometry x="370" y="150" width="60" height="30" as="geometry"/>
                </mxCell>
                <mxCell id="60" value="mise à jour des stocks" style="ellipse;whiteSpace=wrap;html=1;labelBorderColor=default;" parent="1" vertex="1">
                    <mxGeometry x="400" y="480" width="100" height="50" as="geometry"/>
                </mxCell>
                <mxCell id="63" value="include" style="text;html=1;align=center;verticalAlign=middle;resizable=0;points=[];autosize=1;strokeColor=none;fillColor=none;" parent="1" vertex="1">
                    <mxGeometry x="380" y="410" width="60" height="30" as="geometry"/>
                </mxCell>
                <mxCell id="69" style="edgeStyle=none;shape=link;html=1;strokeColor=default;" parent="1" source="65" target="66" edge="1">
                    <mxGeometry relative="1" as="geometry"/>
                </mxCell>
                <mxCell id="65" value="initialisation de la caisse pour la journée" style="ellipse;whiteSpace=wrap;html=1;labelBorderColor=default;" parent="1" vertex="1">
                    <mxGeometry x="400" y="560" width="150" height="70" as="geometry"/>
                </mxCell>
                <mxCell id="66" value="Responsable magasin" style="shape=umlActor;verticalLabelPosition=bottom;verticalAlign=top;html=1;outlineConnect=0;labelBorderColor=default;" parent="1" vertex="1">
                    <mxGeometry x="860" y="560" width="40" height="70" as="geometry"/>
                </mxCell>
                <mxCell id="72" value="caisse" style="text;html=1;align=center;verticalAlign=middle;resizable=0;points=[];autosize=1;strokeColor=none;fillColor=none;" vertex="1" parent="1">
                    <mxGeometry x="415" y="60" width="60" height="30" as="geometry"/>
                </mxCell>
            </root>
        </mxGraphModel>
    </diagram>
</mxfile>